<?xml version="1.0" encoding="utf-8"?>
<!-- Generator: Adobe Illustrator 15.0.0, SVG Export Plug-In . SVG Version: 6.00 Build 0)  -->
<!DOCTYPE svg PUBLIC "-//W3C//DTD SVG 1.1//EN" "http://www.w3.org/Graphics/SVG/1.1/DTD/svg11.dtd">
<svg version="1.1" xmlns="http://www.w3.org/2000/svg" xmlns:xlink="http://www.w3.org/1999/xlink" x="0px" y="0px" width="800px"
	 height="600px" viewBox="0 0 800 600" enable-background="new 0 0 800 600" xml:space="preserve">
<g id="_xAE_">
</g>
<g id="studios_1_">
	<g id="studios">
		<path fill="#1A1A1A" d="M80.96,505.979c-3.671-2.635-5.297-3.939-5.297-7.256c0-2.234,1.49-4.647,4.766-4.647
			c2.204,0,3.591,0.812,4.085,1.162l0.953,0.669l1.421-5.216l-0.388-0.526c-1.047-0.796-3.257-1.597-5.842-1.597
			c-6.449,0-10.955,4.477-10.955,10.892c0,4.075,2.549,7.876,7.557,11.303c2.931,2.213,4.745,4.21,4.745,7.325
			c0,3.507-2.15,5.679-5.617,5.679c-1.687,0-3.837-0.6-5.006-1.398l-0.961-0.653l-1.346,5.221l0.394,0.521
			c1.201,0.894,4.119,1.814,6.92,1.814c6.817,0,11.581-4.764,11.581-11.581C87.968,513.062,85.742,509.345,80.96,505.979z"/>
		<polygon fill="#1A1A1A" points="168.685,494.474 175.691,494.474 175.691,528.924 181.708,528.924 181.708,494.474 
			188.711,494.474 188.711,488.913 168.685,488.913 		"/>
		<path fill="#1A1A1A" d="M285.891,513.73c0.84,0.163,1.439,1.233,1.439,2.719v2.794h-1.735c-0.572,3.106-1.97,4.636-4.241,4.636
			c-3.61,0-4.367-4.572-4.367-8.413v-26.553h-6.017v24.018l0.388,0.075c1.245,0.251,2.568,1.48,3.021,2.807l0.864,2.626l-3.87,1.492
			c1.32,7.632,5.929,9.451,9.922,9.451c4.839,0,10.613-2.53,10.613-14.598v-25.871h-6.017V513.73z"/>
		<path fill="#1A1A1A" d="M393.005,491.855c-2.345-2.095-5.466-3.117-9.541-3.117c-1.557,0-2.947,0.164-4.239,0.396
			c0.38,0.322,0.632,0.783,0.632,1.317c0.004,0.458-0.176,0.896-0.507,1.229c-0.329,0.33-0.782,0.522-1.244,0.522
			c-0.539,0-1.002-0.26-1.325-0.646v5.432h3.076l0.004,4.96l-3.08,0.588v25.813l0.394,0.327l0.239,0.06
			c1.166,0.267,2.95,0.424,5.022,0.424c4.831,0,8.598-1.478,11.193-4.371c3.205-3.497,4.83-9.144,4.83-16.777
			C398.459,498.549,395.489,494.004,393.005,491.855z M383.311,523.891c-0.165,0-0.363-0.012-0.573-0.029l-0.247-29.789
			c0.397-0.076,0.911-0.11,1.484-0.11c5.506,0,8.297,4.761,8.297,14.163C392.272,515.315,390.762,523.879,383.311,523.891z"/>
		<path fill="#1A1A1A" d="M481.744,528.924h1.047l3.966-4.01l1.004,1.006v-37.007h-6.017V528.924z M484.761,515.625
			c1.539,0,2.789,1.245,2.789,2.777c0,1.54-1.25,2.79-2.789,2.79c-1.536,0-2.783-1.25-2.783-2.79
			C481.978,516.87,483.225,515.625,484.761,515.625z"/>
		<path fill="#1A1A1A" d="M583.244,488.46c-7.452,0-12.089,7.815-12.089,20.403c0,12.851,4.286,20.519,11.466,20.519
			c4.448,0,11.918-2.697,11.918-20.748C594.539,496.006,590.316,488.46,583.244,488.46z M582.966,523.879
			c-5.081,0-5.626-10.459-5.626-14.959c0-2.501,0.263-14.958,5.562-14.958c5.186,0,5.452,12.372,5.452,14.846
			C588.354,513.341,587.83,523.879,582.966,523.879z"/>
		<path fill="#1A1A1A" d="M687.831,505.979c-3.673-2.631-5.298-3.936-5.298-7.256c0-2.234,1.485-4.647,4.769-4.647
			c2.205,0,3.59,0.809,4.079,1.159l0.946,0.68l1.43-5.224l-0.384-0.531c-1.057-0.791-3.27-1.592-5.85-1.592
			c-6.446,0-10.951,4.477-10.951,10.892c0,4.075,2.547,7.876,7.561,11.303c2.926,2.213,4.741,4.21,4.741,7.325
			c0,3.507-2.157,5.679-5.628,5.679c-1.683,0-3.831-0.6-5.003-1.398l-0.958-0.653l-1.337,5.221l0.386,0.521
			c1.202,0.894,4.118,1.814,6.912,1.814c6.821,0,11.585-4.764,11.585-11.581C694.831,513.059,692.603,509.342,687.831,505.979z"/>
	</g>
</g>
<g id="blackswamp_1_">
	<g id="blackswamp">
		<g id="swamp">
			<path fill="#5F7D1A" d="M391.829,410.035l-0.277-1.817c-0.283-1.895-0.824-3.565-1.48-5.137l-18.489,2.876
				c0.939,0.96,1.579,2.288,1.847,4.078H391.829z"/>
			<path fill="#5F7D1A" d="M385.964,419.021c-2.101-1.059-4.578-2.029-7.44-2.896c-2.857-0.876-6.301-1.79-10.343-2.79
				c-4.372-1.433-6.594-3.063-6.675-4.879c-0.004-0.366,0.111-0.64,0.17-0.958l-19.467,3.032c0,0.226-0.054,0.445-0.046,0.677
				l0.042,1.6l0.209,1.36c0.588,3.939,2.143,6.972,4.668,9.089c1.772,1.448,3.691,2.646,5.749,3.586
				c2.052,0.943,4.561,1.76,7.519,2.439l9.851,2.726c1.885,0.908,2.957,2.202,3.211,3.873c0.263,1.817-0.306,3.176-1.727,4.082
				c-1.427,0.92-2.909,1.37-4.467,1.37c-4.216,0-6.626-1.967-7.215-5.903l-0.105-1.354h-19.175l0.394,2.607
				c0.895,5.966,3.352,10.283,7.375,12.918c4.891,3.256,10.866,4.894,17.927,4.894c8.939,0,15.938-2.151,20.995-6.44
				c5.057-4.271,7.007-10.272,5.856-18.005C392.437,424.517,390.006,420.841,385.964,419.021z"/>
			<path fill="#5F7D1A" d="M378.352,400.278l9.18-1.461c-4.035-4.887-10.856-7.39-20.587-7.39c-4.678,0-8.542,0.494-11.606,1.48
				c-3.066,0.995-5.578,2.508-7.546,4.554c-2.509,2.613-4.084,5.451-4.918,8.464l29.401-4.68l3.523-3.525L378.352,400.278z"/>
			<path fill="#5F7D1A" d="M477.489,394.36l-4.135-0.051c-1.627-0.021-4.211-0.872-5.882-1.935l-1.703-1.078l-3.036,0.473
				l-8.19,38.312l-7.438-35.88l-17.546,2.73l-6.933,32.655l2.869-2.869l4.494,4.478h-8.966l1.285-1.289l-6.172-30.886l-18.207,2.834
				l9.71,36.703c0.769-0.303,1.62-0.506,2.448-0.506h3.696v7.646h-3.475c-0.258,0-0.533-0.045-0.799-0.071l2.384,9.016h19.233
				l7.143-36.837L446,454.642h19.229l12.531-48.195l-1.68-1.695c-0.892-0.879-1.592-2.646-1.592-4.019v-3.872l4.573,4.572
				l2.646-10.172h-6.534L477.489,394.36z M428.295,449.83c-1.445,0-3.605-2.248-4.995-4.468l-3.26-5.233h4.406
				c0.899,0,3.84,0.112,3.84,1.58c0.009,0.321,0.481,1.993,1.21,3.877l1.62,4.244H428.295z M434.825,400.135
				c-0.964,0-1.747-0.787-1.747-1.755c0-0.959,0.78-1.738,1.739-1.738c0.975,0,1.754,0.779,1.754,1.738
				C436.571,399.348,435.788,400.135,434.825,400.135z M438.964,402.204c-0.963,0-1.747-0.783-1.747-1.751
				c0-0.962,0.784-1.743,1.747-1.743s1.747,0.781,1.747,1.743C440.711,401.421,439.927,402.204,438.964,402.204z M447.248,451.905
				c-0.962,0-1.746-0.785-1.746-1.749c0.004-1.427,1.993-2.239,2.984-1.232c0.331,0.329,0.51,0.768,0.51,1.232
				C448.996,451.12,448.212,451.905,447.248,451.905z M467.704,400.075l4.079-1.56v5.759h-3.825c-1.146,0-3.815-0.147-3.815-1.528
				C464.143,401.528,466.868,400.394,467.704,400.075z M464.504,416.698l4.489-4.47l4.489,4.47H464.504z"/>
			<polygon fill="#5F7D1A" points="433.958,391.428 430.727,391.428 430.614,391.962 			"/>
			<path fill="#5F7D1A" d="M409.305,395.352l5.908-0.939l-0.627-3.151h-19.457l1.612,6.093l9.546-1.521
				C406.666,394.437,408.6,394.241,409.305,395.352z"/>
			<path fill="#5F7D1A" d="M539.12,414.012c-0.039-2.877-0.187-5.316-0.485-7.287c-0.02-0.146-0.068-0.266-0.092-0.409
				c-0.06,0.008-0.111,0.035-0.175,0.035h-0.004c-0.96,0-1.739-0.787-1.739-1.755c0-0.748,0.474-1.373,1.131-1.623
				c-1.07-3.26-2.873-5.847-5.429-7.748c-3.463-2.587-9.094-3.88-16.854-3.88c-19.011,0-28.453,6.677-28.358,20.013h19.047
				c0.569-3.868,2.877-5.798,6.929-5.798c3.852,0,5.981,1.404,6.39,4.218c0.271,1.906-0.561,3.375-2.486,4.433
				c-1.214,0.769-4.33,1.485-9.348,2.17l-6.973,1.48l-4.954,1.146c-3.248,1.139-5.87,2.882-7.863,5.237
				c-2.508,2.738-3.753,6.726-3.753,11.958l0.023,2.746l0.216,1.473c0.616,4.258,2.292,7.486,5.002,9.694
				c3.84,2.956,7.852,4.44,12.022,4.44c7.826,0,14.211-2.806,19.138-8.411l0.942,8.583h21.096v-2.108l-3.41-5.454L539.12,414.012z
				 M494.876,402.204c-0.964,0-1.747-0.783-1.747-1.751c0-0.962,0.783-1.743,1.747-1.743c0.967,0,1.755,0.781,1.755,1.743
				C496.631,401.421,495.843,402.204,494.876,402.204z M517.603,436.596c-1.64,3.027-4.007,4.536-7.107,4.536
				c-3.616-0.524-5.623-2.188-6.029-4.993c0.017-2.504,0.597-4.128,1.743-4.892c1.158-0.752,2.218-1.285,3.185-1.596l3.379-0.899
				c2.98-0.76,5.204-1.56,6.649-2.393C519.552,430.683,518.939,434.093,517.603,436.596z M514.428,399.185l-4.075,1.571v-5.763
				l3.817-0.003c1.149,0,3.822,0.154,3.822,1.52C517.992,397.681,515.498,398.771,514.428,399.185z M520.774,408.412
				c-1.54,0-2.789-1.245-2.789-2.777c0-1.537,1.249-2.786,2.789-2.786c1.536,0,2.782,1.249,2.782,2.786
				C523.557,407.167,522.311,408.412,520.774,408.412z"/>
			<path fill="#5F7D1A" d="M628.038,395.499c-2.976-2.655-7.114-3.987-12.411-3.987c-7.144,0-12.926,3.641-17.363,10.916
				c-2.758-7.275-8.094-10.916-15.994-10.916c-1.639,0-3.108,0.238-4.396,0.688c-1.293,0.454-2.28,0.862-2.989,1.249
				c-0.299,0.155-0.819,0.494-1.556,1.031c-2.993,2.037-5.309,4.54-6.96,7.497l0.031-10.466h-18.123v63.215h19.608l0.022-32.401
				c0.224-4.553,0.868-7.689,1.942-9.436c1.25-1.822,2.977-2.73,5.193-2.73c3.407,0,5.425,2.162,6.057,6.479l0.358,5.121
				l-0.027,32.967h19.794l-0.044-17.328l-4.167,0.014l4.16-4.127l-0.029-10.96c0.056-5.309,0.761-8.647,2.094-10.064
				c1.349-1.397,2.973-2.102,4.858-2.102c1.959,0,3.419,0.474,4.378,1.421c0.955,0.947,1.608,2.559,1.935,4.831
				c0.214,1.521,0.325,3.486,0.29,5.914l-0.02,32.401h19.812v-37.631c-0.082-3.191-0.306-6.028-0.664-8.523
				C632.941,402.507,631.02,398.149,628.038,395.499z M552.865,429.121c-0.967,0-1.755-0.783-1.755-1.746
				c0-0.964,0.788-1.747,1.755-1.747c0.964,0,1.747,0.783,1.747,1.747C554.612,428.338,553.829,429.121,552.865,429.121z
				 M555.624,433.269l4.496-4.488l4.493,4.488H555.624z"/>
			<path fill="#5F7D1A" d="M698.873,414.863c-0.748-5.086-2.276-9.487-4.576-13.217c-2.319-3.712-4.906-6.335-7.78-7.859
				c-1.596-0.971-2.829-1.552-3.7-1.699c-0.887-0.15-1.742-0.338-2.603-0.576c-1.007,0-1.993,0-2.929,0
				c-2.967,0-5.962,0.859-8.967,2.562c-2.992,1.708-5.284,4.338-6.856,7.903l-0.132-10.466h-17.672v79.363h19.902v-4.783
				c-0.275,0.184-0.585,0.313-0.94,0.313c-0.964,0-1.748-0.787-1.748-1.754c0-0.951,0.781-1.735,1.74-1.747
				c0.358,0.003,0.669,0.14,0.948,0.321v-12.301l-2.688,2.694v-8.981l2.688,2.679v-0.323c0.273,0.418,0.563,0.788,0.851,1.171
				l0.954,0.951l-0.11,0.111c3.095,3.645,6.781,5.5,11.091,5.5c0.403,0,0.765-0.088,1.154-0.108
				c-0.021-0.104-0.063-0.203-0.063-0.313c-0.008-0.453,0.171-0.896,0.501-1.229c0.982-0.996,2.829-0.238,2.958,1.105
				c3.548-0.807,6.705-2.547,9.414-5.325c3.819-3.911,6.442-8.941,7.847-15.09C699.57,427.617,699.805,421.317,698.873,414.863z
				 M679.522,425.122c-0.159,1.979-0.542,3.917-1.147,5.822c-1.294,3.646-3.622,5.476-6.976,5.476c-4.544,0-7.262-3.114-8.174-9.359
				c-0.358-12.021,2.324-18.035,8.077-18.035c4.352,0,6.989,3.119,7.901,9.36C679.562,420.893,679.682,423.145,679.522,425.122z"/>
		</g>
		<g id="black">
			<polygon fill="#1A1A1A" points="64.183,454.642 81.896,454.642 81.896,451.058 64.183,453.814 			"/>
			<path fill="#1A1A1A" d="M109.971,447.591c-0.004,1.404-1.144,2.538-2.539,2.538c-1.397,0-2.531-1.138-2.531-2.533
				c0-0.04,0-0.079,0.002-0.119l-3.695,0.572l-4.425,4.441v-3.754l-0.752,0.119c0.072,0.128,0.103,0.268,0.103,0.418
				c0,0.414,0,1.509-5.882,1.509l-3.802-0.067c2.929,2.61,6.629,3.927,10.983,3.927c4.099,0,7.7-1.069,10.8-3.191
				c2.046-1.4,3.787-3.195,5.285-5.315l-3.719,0.576C109.912,446.99,109.971,447.288,109.971,447.591z"/>
			<path fill="#1A1A1A" d="M111.641,397.688c-3.986-4.162-8.346-6.26-13.083-6.26c-3.095,0-5.749,0.629-7.969,1.883
				c-2.219,1.245-4.429,3.199-6.628,5.854v-28.422H64.183v79.543l17.712-2.817v-3.175c0.396,0.887,0.834,1.711,1.305,2.481
				c0.346-0.989,1.251-1.715,2.356-1.715c0.899,0,1.709,0.471,2.163,1.223l0.854,0.162l8.209-1.344v-1.593l1.364,1.373l17.749-2.824
				c3.731-7.565,4.873-16.492,3.365-26.822C118.167,407.717,115.628,401.878,111.641,397.688z M98.774,431.995
				c-1.424,3.652-3.716,5.472-6.878,5.472c-4.417,0-7.127-3.418-8.12-10.267c0.06-5.628,0.583-9.965,1.564-13.014
				c0.975-3.048,3.235-4.561,6.771-4.561c4.228,0,6.833,3.343,7.807,10.04C100.583,424.235,100.204,428.346,98.774,431.995z
				 M102.683,423.86h-0.006c-0.969,0-1.755-0.787-1.755-1.754c0-0.964,0.786-1.743,1.755-1.743c0.959,0,1.739,0.779,1.739,1.743
				C104.416,423.069,103.638,423.857,102.683,423.86z"/>
			<path fill="#1A1A1A" d="M139.137,443.95c0,1.396-1.136,2.534-2.535,2.534c-1.4,0-2.538-1.134-2.538-2.531
				c0-0.382,0.097-0.731,0.249-1.059l-5.92,0.924v8.84l4.31-4.291l4.487,4.476h-8.797v1.799h16.66
				c0.132-1.28,1.176-2.291,2.482-2.291c0.165,0,0.31,0.063,0.467,0.095v-11.68l-9.547,1.485
				C138.868,442.699,139.137,443.289,139.137,443.95z"/>
			<polygon fill="#1A1A1A" points="128.392,440.065 148.001,436.946 148.001,370.742 128.392,370.742 			"/>
			<path fill="#1A1A1A" d="M178.594,431.334c1.156-0.752,2.219-1.293,3.179-1.596l3.373-0.903c2.984-0.76,5.203-1.556,6.664-2.387
				c0.036,1.265-0.01,2.427-0.102,3.537l19.802-3.151l0.002-12.73c-0.038-2.882-0.201-5.312-0.49-7.286
				c-0.736-5.094-2.845-8.926-6.311-11.509c-3.475-2.575-9.089-3.881-16.864-3.881c-19.006,0-28.455,6.678-28.347,20.013h19.042
				c0.575-3.859,2.887-5.794,6.922-5.794c3.855,0,5.989,1.394,6.395,4.219c0.275,1.89-0.551,3.379-2.479,4.437
				c-1.215,0.761-4.333,1.48-9.347,2.165l-6.984,1.479l-4.951,1.144c-3.247,1.143-5.866,2.885-7.86,5.245
				c-2.383,2.598-3.597,6.379-3.71,11.253l21.234-3.382C177.999,431.852,178.265,431.549,178.594,431.334z"/>
			<path fill="#1A1A1A" d="M211.51,430.881l-20.522,3.191c-0.274,0.946-0.593,1.834-1.007,2.604
				c-1.641,3.031-4.013,4.551-7.107,4.551c-3.59-0.529-5.591-2.184-6.013-4.954l-20.298,3.16l0.159,1.075
				c0.617,4.267,2.288,7.488,5.006,9.693c3.843,2.954,7.85,4.44,12.02,4.44c6.374,0,11.774-1.889,16.229-5.618
				c0.002-0.964,0.783-1.743,1.746-1.743c0.041,0,0.075,0.021,0.115,0.023c0.353-0.358,0.712-0.696,1.051-1.081l0.197,1.758
				c0.229,0.295,0.388,0.65,0.388,1.051c0,0.275-0.074,0.521-0.186,0.753l0.544,4.857h21.097l0.04-2.023l-3.462-5.375
				L211.51,430.881z M164.805,448.705c-0.956,0-1.744-0.776-1.755-1.734c0.011-0.975,0.799-1.751,1.755-1.751
				c0.961,0,1.743,0.779,1.743,1.742C166.548,447.926,165.766,448.705,164.805,448.705z M181.491,452.843
				c-1.041,0-2.372-1.714-2.995-2.726l-1.482-2.376l0.975-0.986l2.396,1.457c0.289,0.183,2.729,1.755,2.729,3.017
				C183.114,452.118,182.386,452.843,181.491,452.843z M195.865,452.843c-0.963,0-1.748-0.779-1.748-1.738
				c0-0.962,0.785-1.746,1.748-1.746s1.747,0.784,1.747,1.746C197.612,452.063,196.828,452.843,195.865,452.843z"/>
			<path fill="#1A1A1A" d="M239.922,413.375c1.125-4.035,3.655-6.057,7.598-6.057c1.965,0,3.609,0.803,4.918,2.412
				c1.019,1.285,1.671,2.924,1.956,4.91l0.196,1.369h20.1l-0.058-1.715l-0.234-1.604c-0.91-6.235-3.502-11.198-7.784-14.863
				c-4.939-4.259-11.252-6.399-18.929-6.399c-9.781,0-17.018,3.152-21.728,9.432c-4.702,6.287-7.056,14.004-7.058,23.145
				l0.079,1.645l19.956-3.181C239.041,418.931,239.353,415.857,239.922,413.375z"/>
			<path fill="#1A1A1A" d="M253.644,435.104l1.273,9.868l-2-0.009c-1.306,0-1.889-1.967-1.889-3.916
				c0-0.644-0.259-1.715-0.619-2.905c-0.832,0.398-1.759,0.605-2.793,0.605c-4.828,0-7.715-3.274-8.671-9.828
				c-0.03-0.809-0.024-1.536-0.038-2.305l-19.717,3.067l0.02,0.383c1.039,7.159,4.01,13.048,8.899,17.656
				c4.89,4.612,11.308,6.92,19.245,6.92c7.808,0,14.19-2.077,19.147-6.229c4.948-4.156,7.777-10.349,8.482-18.57h-18.057
				L253.644,435.104z M242.426,447.045c-0.965,0-1.751-0.787-1.751-1.757c0-0.964,0.786-1.748,1.751-1.748
				c0.958,0,1.738,0.784,1.738,1.748C244.164,446.258,243.384,447.045,242.426,447.045z M251.785,452.843
				c-0.965,0-1.751-0.779-1.751-1.738c0-0.962,0.786-1.746,1.751-1.746c0.957,0,1.735,0.784,1.735,1.746
				C253.521,452.063,252.742,452.843,251.785,452.843z M246.539,448.784l-0.236-1.373l5.87-2.347l4.11,4.127L246.539,448.784z"/>
			<path fill="#1A1A1A" d="M321.608,413.737l-28.376,4.417l-1.326,34.956c-0.019,0.488-0.067,1.015-0.106,1.531h10.719
				l-0.041-18.531l3.597-4.549l10.657,23.08h23.684l-20.672-38.545L321.608,413.737z"/>
			<path fill="#1A1A1A" d="M282.722,370.742v7.943l0.647,0.983c1.053,1.603,2.178,3.916,2.194,5.034
				c0.013,0.596-0.212,1.162-0.63,1.591c-0.42,0.427-0.981,0.661-1.58,0.661c-0.003,0-0.003,0-0.003,0h-0.041
				c-0.167-0.005-0.387-0.06-0.587-0.099V415.5l8.141-1.298l2.083-43.46H282.722z"/>
			<path fill="#1A1A1A" d="M282.722,454.642h6.19c0.022-0.393,0.047-0.79,0.067-1.185l1.674-34.896l-7.932,1.234V454.642z"/>
			<polygon fill="#1A1A1A" points="295.035,370.742 293.399,413.801 325.605,408.675 339.225,391.428 316.11,391.428 
				302.353,411.218 302.353,370.742 			"/>
		</g>
	</g>
</g>
<g id="footstep_1_">
	<g id="footstep">
		<g>
			<path fill="#1A1A1A" d="M137.561,111.756l-5.514,1.061c0.617,1.828,1.616,3.623,3.18,5.329c3.008,3.274,6.057,5.413,9.391,8.23
				c1.934,1.637,3.682,5.849,5.281,6.939c3.51,2.402,6.634-1.255,9.997-1.114c3.179,0.132,4.278,1.309,7.234,2.372
				c6.972,2.509,14.653,9.021,20.864,13.19c3.833,2.573,4.852,7.726,8.391,7.724c-3.448,8.892-4.822,18.726-4.053,29.135l0.02,0.02
				l14.495-0.605c0.104-4.101,0.283-8.533,0.478-12.663l-1.375,3.578c-0.669,1.727-2.171,3.564-3.646,3.566h-2.824l1.566-4.077
				c0.667-1.727,2.167-3.564,3.64-3.564h2.66c0.398-8.275,0.847-15.144,0.847-15.144l-8.365-7.583l-9.181-8.323
				c0,0,6.655,0.221,13.735,1.353c3.235,0.52,6.56,1.229,9.378,2.195c13,4.465,33.378,8.174,47.96,6.805
				c-0.123-0.073-0.266-0.145-0.382-0.219l-3.074-1.95l4.905-7.641l2.641,4.031c1.017,1.556,2.087,3.767,2.164,4.929
				c10.939-2.012,22.094-3.001,33.266-3.246c0.378-10.233,0.615-16.336,0.727-18.654v-0.002v-0.006l1.425,0.062
				c-0.101,2.662-0.333,9.237-0.652,18.541c4.337-0.07,8.675-0.044,13,0.087c26.385,0.812,50.97,9.725,76.88,13.33
				c61.114,8.524,124.296,1.886,185.485,6.381c-0.419-0.316-0.709-0.795-0.709-1.361c0.005-1.44,1.995-2.232,2.989-1.235
				c0.326,0.334,0.505,0.776,0.497,1.245c0,0.64-0.369,1.177-0.892,1.477c6.042,0.467,12.062,1.033,18.056,1.75l86.36-3.607
				c-2.007-1.784-3.349-2.791-3.349-2.791l86.842-19.105l-59.454,1.548l-13.251-12.065l7.919-17.409l-23.392,18.575l17.286,14.278
				l-26.001,4.613c0,0-12.988-6.16-23.232-8.54c-8.031-1.867-15.894-4.539-23.782-7.092l-3.119,1.924l0.003-2.925
				c-0.397-0.125-0.8-0.258-1.197-0.384c-11.048-3.468-47.468-2.414-47.468-2.414l-4.998,9.411c1.106,0.767,2.213,1.665,3.116,2.569
				c2.112,2.105,4.361,5.159,4.361,6.669v3.134l-11.357-5.169l-0.602,1.811c-0.568,1.708-2.073,3.048-3.431,3.048h-0.298
				l-2.316-2.342v-0.292c0-1.431,1.655-3.867,3.216-5.435l2.512-2.501l-3.284-3.277h3.729l-4.092-13.859l-39.695,2.526l2.415-0.394
				l-6.185-2.977l0.398-1.407l-3.939-0.74l-0.016,0.055c-0.112-0.018-0.247-0.028-0.342-0.033l-0.08-0.325l-2.952,0.326
				l-2.245,2.889l0.318,1.24c0.108,0.434,0.291,0.826,0.506,1.184l-45.435-9.637l-4.158,34.109l-7.351-26.771
				c0.39-0.772,0.812-1.53,1.412-2.218c0.39-0.45,2.091-1.713,2.121-2.25c0.018-0.277-0.075-0.434-0.219-0.543
				c-0.278-0.211-0.759-0.251-1.055-0.644c-0.485-0.639-0.438-1.665-0.171-2.379c0.311-0.832,1.091-1.259,0.43-2.066
				c-0.449-0.543-1.738-0.614-2.352-1.157c-0.16,0.145-0.314,0.294-0.469,0.441l-6.798-2.648l3.24,4.207l-0.924,0.8l0.605,1.308
				l-0.534,0.509l0.893,0.267l0.636,1.386c0,0-0.327,2.299-0.335,2.346c0.128-0.895,0.685-0.345,1.111,0.255l-8.409,14.727
				l-3.423-20.369c-9.185-0.852-24.657-2.046-33.42-5.319c-1.038-0.385-3.23-1.166-5.461-1.956c-0.154,0.195-0.295,0.412-0.46,0.581
				c0.527,0.205,1.031,0.404,1.508,0.557l2.624,0.784l0.625,0.166c3.175,0.896,6.299,1.854,9.415,2.838l2.662,0.799
				c0.517,0.151,1.067,0.29,1.624,0.432c1.444,0.366,2.937,0.745,4.21,1.395l2.376,1.216l-2.837,0.135
				c-0.681,0-1.202-0.207-1.704-0.406l-0.605-0.225c-2.061-0.682-4.106-1.334-6.155-1.983c-3.335-0.974-6.67-1.964-9.988-2.991
				c-0.765-0.211-1.552-0.412-2.331-0.619c0.627,0.368,1.176,0.689,1.721,0.997c2.412,0.621,5.191,1.449,7.657,2.885l2.324,1.355
				l-2.69-0.026c-2.438-0.021-5.61-1.637-7.824-2.879c-1.094-0.283-2.193-0.543-3.276-0.803l-0.419-0.102
				c-0.081,1.362-0.222,2.499-0.487,3.44l-0.626,2.223l-0.319-0.946c-0.047,1.552-0.162,3.061-0.397,4.515l-1.391,0.079
				c-0.688-2.432-1.058-5.006-1.321-7.318l-0.016,0.026l0.014,2.332c0,0.36,0.02,0.772,0.04,1.206c0.069,1.482,0.147,3.166-0.4,4.23
				l-0.725,1.411l-0.575-1.478c-0.748-1.927-0.707-4.31-0.668-6.414l0.015-1.333l0.666-0.038l0.208-0.326l-0.017-3.152
				c-4.498-1.166-11.136-2.998-12.436-6.365l-0.601-1.552l1.538,0.637c3.746,1.552,7.698,2.702,11.461,3.703l-2.017-1.031
				c-1.344-0.692-2.696-1.388-4.088-2.059l-0.547-0.138c-0.963-0.241-1.913-0.475-2.805-0.739l0.062-1.384
				c1.381-0.276,2.242,0.154,3.194,0.621l0.37,0.182l-0.006,0.054l0.154,0.037c1.972,0.493,4.003,1.107,5.758,2.205
				c0-0.366,0.003-0.732,0.013-1.098l-5.894-12.107l-12.646-11.237l28.042-17.641l-28.062,10.283l-21.855-9.739l18.376,14.21
				l-9.701,5.175l16.964,6.918l-12.177,11.288c0,0-16.674,0.834-29.759,1.007l0.716-0.79l-0.147-1.172l2.4-2.799l-3.74-2.071
				l0.657-1.114l-6.487-1.813l-5.384,2.641l-0.76,5.617l0.274,0.681c0.101,0.247,0.271,0.505,0.43,0.762
				c-7.665-0.108-23.165-0.298-23.165-0.298l-6.271,25.084l-9.619-20.801l-7.875,31.437c-0.501,0.07-6.375-27.979-6.375-27.979
				c-18.238,1.375-33.243,6.044-44.939,13.156c0.312-0.529,0.651-1.054,1.068-1.574c4.051-5.036,9.869-11.715,3.693-17.836
				c-4.835-4.788-11.768-10.452-18.715-11.612c6.621-6.722-14.704-9.028-18.326-8.885c-4.524,0.189-7.02,2.43-10.212-0.368
				c-2.805-2.458-3.302-5.908-6.757-7.912c-2.726-1.58-7.072-1.998-10.068-2.925c-4.203-1.299-8.399-2.613-12.598-3.922l1.335,2.153
				c6.355,4.342,16.922,11.589,16.861,11.736c-0.068,0.155-12.373,0.736-12.373,0.736l-4.166,17.293l-3.57-15.574
				c-7.773,3.522-16.123,11.806-17.162,20.348l6.152,0.004V111.756z M585.028,154.144c0.962,0,1.746,0.784,1.746,1.747
				c0,0.96-0.784,1.743-1.746,1.743c-0.968,0-1.755-0.783-1.755-1.745C583.273,154.925,584.061,154.144,585.028,154.144z
				 M585.02,157.765c1.394,0,2.527,1.134,2.527,2.53c0,1.398-1.134,2.537-2.527,2.537h-0.004c-1.396,0-2.53-1.139-2.53-2.537
				C582.485,158.899,583.623,157.765,585.02,157.765z M575.863,153.473v5.84c0,1.158-0.056,2.215-0.144,2.981
				c-0.092,0.82-0.206,1.84-1.03,1.84c-0.239,0-0.875-0.002-2.464-2.589l-1.695-2.734L575.863,153.473z M560.518,154.426
				c0.964,0,1.743,0.783,1.743,1.747c0,0.964-0.779,1.75-1.738,1.75c-0.968,0-1.756-0.784-1.756-1.749
				C558.767,155.209,559.552,154.426,560.518,154.426z M548.559,157.763c1.401,0.001,2.536,1.136,2.536,2.528
				c0,1.399-1.135,2.54-2.536,2.541c-1.404-0.001-2.543-1.142-2.543-2.538C546.016,158.9,547.154,157.765,548.559,157.763z
				 M522.382,140.113c0.956,0,1.731,0.781,1.731,1.742c0,0.96-0.771,1.748-1.728,1.755h-0.008c-0.48-0.002-0.927-0.191-1.257-0.527
				c-0.326-0.332-0.502-0.772-0.494-1.238C520.627,140.894,521.415,140.113,522.382,140.113z M509.949,151.881
				c-0.962,0-1.746-0.781-1.746-1.741c0-0.961,0.78-1.743,1.742-1.743c0.968,0,1.752,0.782,1.752,1.745
				C511.697,151.101,510.913,151.881,509.949,151.881z M500.619,151.551l4.476,4.481l-8.946-0.002L500.619,151.551z M494.74,153.962
				l-8.945,0.004l4.492-4.488L494.74,153.962z M485.417,134.285l4.481,4.462l-4.481,4.482V134.285z M466.785,153.101l5.228-3.245
				l3.499,3.489l-8.727,8.722V153.101z M438.764,147.569l5.651,5.605l-3.602,3.604l-3.219-8.451L438.764,147.569z M431.248,148.397
				c0.971,0,1.758,0.782,1.758,1.745c0,0.959-0.787,1.74-1.755,1.74c-0.959,0-1.738-0.781-1.738-1.74
				C429.513,149.179,430.292,148.397,431.248,148.397z M380.992,149.866l1.192,1.137c0.574,0.548,0.888,1.308,0.888,2.142
				l0.012,2.899l-2.766-0.346l0.375-0.871c0.1-0.233,0.267-1.339,0.286-3.313L380.992,149.866z M377.888,152.336
				c1.024-1.026,2.988-0.186,2.984,1.234c0,0.961-0.786,1.744-1.754,1.744c-0.958,0-1.735-0.782-1.735-1.744
				C377.379,153.109,377.558,152.669,377.888,152.336z M365.821,146.831c1.004-1.015,2.987-0.188,2.987,1.241
				c0,0.964-0.786,1.748-1.754,1.748c-0.468,0-0.905-0.182-1.232-0.513c-0.329-0.334-0.507-0.776-0.499-1.246
				C365.315,147.609,365.492,147.165,365.821,146.831z M357.716,130.141c0.328,0.331,0.507,0.766,0.507,1.229
				c0,0.466-0.177,0.904-0.501,1.234c-0.328,0.336-0.766,0.52-1.229,0.52c-0.969,0-1.755-0.786-1.755-1.753
				C354.737,129.944,356.705,129.118,357.716,130.141z M329.51,116.782c0,0.879-0.062,1.673-0.164,2.246
				c-0.076,0.44-0.255,1.469-1.073,1.469h-0.001h-0.048c-0.659-0.046-2.929-1.457-3.609-1.889l-3.956-2.521l8.851-3.378V116.782z
				 M329.219,95.768l4.139,4.123l-9.776-0.396l-0.236-1.375L329.219,95.768z M321.956,125.662c0.959,0,1.738,0.786,1.738,1.755
				c0,0.96-0.777,1.741-1.734,1.741c-0.968,0-1.752-0.782-1.752-1.743C320.208,126.448,320.993,125.662,321.956,125.662z
				 M307.785,111.533l4.473,4.485l-4.473,4.48V111.533z M244.471,134.731l3.607,3.609l-8.462,3.223l-0.763-1.168L244.471,134.731z
				 M193.798,113.011c0.971,0,1.757,0.785,1.757,1.75s-0.786,1.751-1.755,1.751h-0.004c-0.961,0-1.743-0.784-1.743-1.749
				C192.053,113.801,192.834,113.014,193.798,113.011z M186.927,98.393c0.965,0,1.751,0.784,1.751,1.749
				c0,0.963-0.786,1.748-1.751,1.748c-0.96,0-1.743-0.784-1.743-1.748C185.184,99.176,185.966,98.393,186.927,98.393z
				 M184.694,96.969c0.327,0.333,0.506,0.769,0.501,1.228c0,0.959-0.786,1.743-1.751,1.743c-0.963,0-1.747-0.782-1.747-1.745
				C181.698,96.758,183.689,95.957,184.694,96.969z M188.494,116.712l2.472,1.526c1.409,0.863,2.51,2.572,2.51,3.893v2.663
				l-9.155,0.004l-3.234-5.247L188.494,116.712z M175.482,105.108l4.481,4.471l-4.481,4.495V105.108z M177.233,123.37
				c0.962,0,1.747,0.782,1.747,1.745c0.004,0.461-0.175,0.899-0.505,1.231c-0.331,0.333-0.77,0.516-1.238,0.516
				c-0.969,0-1.755-0.785-1.755-1.748S176.268,123.37,177.233,123.37z M167.399,125.129l2.392,1.477
				c1.013,0.622,2.727,1.956,2.727,2.997c0,0.897-0.729,1.626-1.624,1.626c-1.259,0-2.825-2.44-3-2.718l-1.475-2.4L167.399,125.129z
				 M146.169,90.232c0.959,0,1.745,0.784,1.751,1.749c0,0.963-0.786,1.742-1.751,1.742c-0.958,0-1.741-0.776-1.747-1.733
				C144.428,91.016,145.211,90.232,146.169,90.232z M143.266,113.525c0.331,0.332,0.512,0.769,0.512,1.235
				c0,0.965-0.78,1.755-1.741,1.757h-0.002c-0.969,0-1.754-0.786-1.754-1.755C140.277,113.332,142.245,112.503,143.266,113.525z
				 M137.054,101.502c-0.331,0.333-0.771,0.516-1.24,0.516c-0.963,0-1.747-0.786-1.747-1.753c0-0.965,0.784-1.75,1.747-1.75
				s1.747,0.785,1.747,1.75C137.565,100.728,137.384,101.17,137.054,101.502z"/>
			<path fill="#1A1A1A" d="M146.8,315.818c-6.986-0.674-14.538-2.071-22.094-3.161c-0.571,0.642-1.25,1.21-1.876,1.21
				c-0.717,0-1.268-0.637-1.504-1.644c-1.895-0.243-3.793-0.493-5.669-0.661c-3.86-0.342-6.168-0.62-8.311-1.447l-11.637,1.718
				v-2.304c0-1.587,3.239-2.865,5.155-3.366l0.13-0.036c-0.336-0.259-0.634-0.481-1.001-0.771
				c-21.214-16.828,29.687-29.572,38.028-30.485c12.739-1.385,25.704-0.951,38.558,0.625c5.424,0.668,11.286,2.581,16.607,1.87
				c5.01-0.667,9.65-2.998,14.266-5.236c2.512-1.218,5.015-2.41,7.57-3.288c8.122-2.792,15.281-6.622,23.125-10.022
				c4.492-1.944,13.16-4.259,13.16-4.259s-27.919-22.005-32.727-28.189c-6.901-8.876-11.33-20.857-11.755-31.941
				c-0.09-2.358-0.078-5.442-0.008-8.817l-13.052,0.434l0.759,0.756h-1.981c0.995,9.771,3.812,19.997,8.56,30.387
				c2.793,8.67,17.112,23.618,24.092,31.157l-14.812,11.258c-2.579-1.6-5.084-3.345-7.836-4.562l-0.687,0.688v-0.971
				c-0.281-0.114-0.555-0.245-0.842-0.344c-5.372-1.868-11.922-2.589-17.561-3.936c-1.123-0.274-2.249-0.541-3.375-0.82
				c-11.616-2.81-23.408-5.693-35.736-5.279c-3.475,0.117-8.737,0.923-11.386,1.359c0.002,0.04,0.022,0.074,0.022,0.114
				c0,0.961-0.785,1.741-1.747,1.741c-0.733,0-1.356-0.453-1.616-1.094c-2.096,0.608-5.665,1.68-7.758,2.523
				c-2.862,1.154-5.711,2.511-8.671,4.065c-8.035,4.218-19.592,8.978-25.294,15.169c-0.939,1.021-1.886,2.225-2.807,3.516
				c0.746,0.44,1.275,1.221,1.278,2.147c0,1.401-1.139,2.539-2.54,2.539c-0.539,0-1.011-0.207-1.421-0.493
				c-2.061,3.583-3.725,7.412-4.359,10.534c-6.682,32.92,44.125,36.944,62.578,37.915c-3.466,0.752-4.003,6.758-4.003,6.758
				s4.982-1.999,11.389-4.307l-0.435-0.705l1.653-4.444c0.621-1.651,2.141-3.94,3.824-5.926
				C150.986,315.988,148.9,316.017,146.8,315.818z M203.499,190.942c-0.964,0-1.748-0.785-1.748-1.749
				c0-0.961,0.784-1.741,1.748-1.741c0.964,0,1.75,0.78,1.75,1.739C205.249,190.156,204.463,190.942,203.499,190.942z
				 M220.172,254.675c0.961,0,1.743,0.785,1.743,1.748c0.009,0.452-0.169,0.892-0.497,1.226c-0.327,0.333-0.778,0.527-1.236,0.528
				h-0.009c-0.982-0.005-1.751-0.777-1.751-1.754C218.42,255.46,219.207,254.675,220.172,254.675z M209.083,260.591l5.779-2.217
				l2.473,1.522c1.408,0.868,2.511,2.581,2.511,3.9v2.659l-4.732-0.006l-4.427,0.006l-2.975-4.824l-0.257-0.417L209.083,260.591z
				 M203.116,265.126c0.154-0.046,0.306-0.098,0.474-0.098c0.977,0,1.771,0.786,1.771,1.754c0,0.557-0.284,1.032-0.701,1.35
				c-0.298,0.229-0.656,0.388-1.062,0.388c-0.959,0-1.74-0.777-1.74-1.736C201.858,265.986,202.396,265.337,203.116,265.126z
				 M137.402,270.275c0,1.397-1.134,2.535-2.531,2.535h-0.004c-1.398,0-2.535-1.136-2.535-2.533c0-1.399,1.138-2.537,2.54-2.537
				c0.674,0,1.312,0.265,1.793,0.748C137.143,268.97,137.406,269.604,137.402,270.275z M130.629,250.652
				c0.505-0.832,1.745-2.415,2.793-2.415c0.959,0,1.627,1.146,1.627,2.789v2.782h-6.385L130.629,250.652z M128.328,250.827
				c0.329,0.329,0.51,0.766,0.51,1.232c0,0.963-0.784,1.749-1.749,1.75h-0.004c-0.953-0.001-1.735-0.788-1.741-1.749
				C125.344,250.625,127.313,249.812,128.328,250.827z M83.603,286.934c-0.965,0-1.75-0.78-1.75-1.738
				c0-0.956,0.784-1.738,1.749-1.739c0.963,0,1.745,0.78,1.745,1.741C85.346,286.156,84.564,286.934,83.603,286.934z
				 M91.046,298.861c-0.326,0.329-0.764,0.509-1.228,0.509c-0.471,0-0.913-0.183-1.245-0.515c-0.331-0.332-0.51-0.774-0.506-1.241
				c-0.004-0.454,0.175-0.893,0.506-1.224c0.664-0.668,1.818-0.667,2.483,0.002c0.328,0.334,0.505,0.771,0.498,1.233
				C91.558,298.083,91.377,298.526,91.046,298.861z M122.952,318.007c-0.965,0-1.751-0.784-1.751-1.751
				c0-0.968,0.786-1.753,1.751-1.753c0.961,0,1.743,0.785,1.743,1.753C124.695,317.223,123.914,318.007,122.952,318.007z"/>
			<path fill="#1A1A1A" d="M82.184,214.958c0,0,14.744-0.366,21.526,2.481c2.717,1.142,4.68,3.042,7.397,4.046
				c12.615,4.629,26.5,5.859,38.996,2.495c5.977-1.605,11.735-3.696,15.779-7.818c3.128-3.191,7.287-6.333,10.826-9.643
				c-0.085-0.205-0.135-0.431-0.135-0.668c0-0.963,0.784-1.747,1.747-1.747c0.228,0,0.445,0.052,0.644,0.133
				c0.232-0.249,0.51-0.488,0.732-0.74c4.406-5.035,2.272-8.409,1.214-14.498c-0.147-0.852-0.265-1.662-0.362-2.439l-24.607,1.028
				c2.122,0.857,4.113,2.042,5.774,3.705l3.854-2.381l3.49,3.487l-4.066,4.063c0.267,0.735,0.498,1.512,0.675,2.352
				c0.581,2.76-0.099,5.136-1.466,7.161l1.162,1.164l-4.478,4.489v-2.211c-3.46,2.676-7.941,4.365-10.811,5.149
				c-7.695,2.113-16.574,3.918-24.84,1.64c-6.996-1.944-13.219-6.292-20.996-7.752c-8.537-1.579-30.575-5.094-30.575-5.094
				c1.099-2.581,2.722-5.36,3.16-8.172c0.253-1.643-0.01-3.094,0.151-4.302l-9.789,0.408c-0.969,0.205-2.206,0.663-3.402,1.18
				c1.428,4.724,3.546,8.929,3.546,8.929l-20.296,3.864l-2.049,16.113l-22.16,2.155l0.021,0.462l26.711,3.583l4.881-11.917
				l-6.157,0.004v-5.575l7.637,0.001v2.058L82.184,214.958z"/>
			<path fill="#1A1A1A" d="M64.676,180.231c0.643,1.242,0.941,2.522,0.872,3.549c0.089-0.014,0.173-0.026,0.255-0.033l5.416-0.542
				l-4.107,2.872l4.7,0.02l-0.061,2.574l7.101-0.235c0.201-0.098,0.382-0.197,0.627-0.282c3.888-1.357,8.066-3.59,12.153-3.641
				c17.406-0.193,32.501-7.985,49.291-0.655c2.139,0.934,5.853,1.286,9.783,2.16l29.67-0.962c-0.144-1.314-0.275-2.556-0.436-3.749
				l-0.971,0.969v-5.302c-0.307-0.918-0.677-1.849-1.192-2.815l-5.02,3.09v-8.956l-5.723-2.093l2.415-2.581
				c-1.914-1.871-3.969-3.607-6.257-4.957c-3.379-1.993-8.775-2.445-8.775-2.445l-9.754,25.528l-7.481-30.803
				c0,0-2.604-0.149-6.807-0.151c-0.312,0.471-0.82,0.802-1.425,0.802h-0.003c-0.595,0-1.097-0.321-1.411-0.78
				c-16.131,0.241-47.87,2.808-58.439,18.759c-1.497,2.256-4.195,6.457-4.195,6.457s-0.708,1.878-1.351,3.964l0.823-0.35
				L64.676,180.231z M131.667,158.102l1.375-0.236l2.342,5.878l-4.125,4.126L131.667,158.102z M120.987,160.52h2.781
				c1.535,0,2.782,1.197,2.782,2.667c0,1.32-1.059,3.003-2.41,3.831l-3.153,1.954V160.52z"/>
			<path fill="#1A1A1A" d="M669.464,238.773c0.097,0.824,0.216,1.648,0.292,2.47c0.481,0.101,0.928,0.203,1.317,0.296l-0.406-1.425
				C669.987,239.939,669.588,239.408,669.464,238.773z"/>
			<path fill="#1A1A1A" d="M669.163,235.519c-0.028-0.004-0.057-0.006-0.079-0.008c0.127,0.949,0.222,1.899,0.334,2.848
				c0.032-0.364,0.14-0.705,0.398-0.971L669.163,235.519z"/>
			<path fill="#1A1A1A" d="M677.329,244.238c0.087-0.046,0.176-0.087,0.258-0.135c-0.227-0.002-0.452-0.006-0.68-0.01
				C677.053,244.16,677.189,244.188,677.329,244.238z"/>
			<path fill="#1A1A1A" d="M397.901,243.852c-0.042,0.232-0.087,0.483-0.127,0.68l1.164-0.672l-0.064-0.229L397.901,243.852z"/>
			<path fill="#1A1A1A" d="M399.738,241.574c0.043,0.139,0.095,0.279,0.139,0.42l0.689-0.201l0.04-0.01
				c-0.12-0.113-0.236-0.215-0.351-0.325C400.08,241.496,399.909,241.536,399.738,241.574z"/>
			<path fill="#1A1A1A" d="M668.344,246.665l-0.979-0.001c-0.274,0.328-0.526,0.702-0.771,1.08c0.64-0.058,1.28-0.133,1.922-0.251
				c-0.052-0.263-0.104-0.525-0.165-0.79L668.344,246.665z"/>
			<path fill="#1A1A1A" d="M660.77,234.659c0.479,0,0.912,0.195,1.23,0.506c0.568-0.667,1.547-1.065,2.962-1.207l-0.018-0.051
				c-4.597,0.559-10.2,0.588-16.897,0.71c-19.753,0.356-39.011-2.899-58.185-6.879c0.112,0.486,0.184,0.932,0.184,1.282
				c0,0.719-0.204,1.405-0.577,1.93c-0.418,0.587-1.015,0.925-1.644,0.925c0,0,0,0-0.004,0l-0.096-0.001
				c-1.149-0.054-3.704-1.555-5.522-2.938l-4.251-3.219l0.422-0.421c-3.498-0.758-6.996-1.518-10.494-2.27
				c-0.302,0.517-0.848,0.881-1.493,0.881h-0.003c-0.903,0-1.624-0.692-1.715-1.568c-8.915-1.891-17.852-3.671-26.854-5.046
				c-44.498-6.789-81.818,9.34-121.602,20.217c2.312-0.427,4.708-0.742,6.951-1.025c1.175-0.146,2.289-0.286,3.308-0.435
				c0.004-0.003,0.013-0.003,0.017-0.004l0.207,1.413c-5.222,0.768-10.375,1.936-14.295,2.874c-0.334,0.117-0.669,0.252-1.003,0.374
				c0.788-0.093,1.536-0.217,2.204-0.346c1.405-0.412,2.687-0.653,3.916-0.734l0.426-0.428l3.59,3.597l-8.452,3.228l-0.761-1.168
				l3.435-3.454c-0.313,0.06-0.652,0.115-0.963,0.176l-0.858,0.171c-1.657,0.492-3.296,1.18-4.884,1.848
				c-1.034,0.435-2.066,0.865-3.101,1.251c0.733,0.687,1.473,1.363,2.213,2.01c0.474,0.414,0.986,0.838,1.509,1.273
				c0.031,0.026,0.067,0.056,0.1,0.084c2.176-0.647,4.346-1.304,6.471-2.015c3.716-1.246,7.099-3.355,10.991-4.123
				c3.938-0.783,8.214,0.263,12.297-0.343c18.822-2.808,34.939-13.611,54.838-13.401c4.281,0.048,8.6,0.388,12.816,0.511
				l1.374-1.385l1.425,1.427c2.849-0.002,5.635-0.155,8.308-0.641c4.762-0.865,9.612-0.833,14.463-0.375
				c0.127-0.838,0.815-1.495,1.683-1.495c0.971,0,1.76,0.784,1.76,1.748c0,0.046-0.023,0.085-0.028,0.131
				c2.292,0.3,4.577,0.668,6.846,1.073c1.038,0.185,2.028,0.254,3.009,0.294l-0.16-0.101l3.041-3.067l10.072,2.642v2.828
				c1.83,0.734,3.652,1.492,5.487,1.967c5.468,1.41,10.689,2.615,16.125,4.398c4.871,1.588,10.171,3.086,14.765,5.104
				c9.773,4.306,19.172,1.126,29.273,1.144c4.066,0.016,9.806-0.951,13.808,0.5c3.859,1.396,6.605,3.951,10.943,4.612
				c3.034,0.456,6.734,0.022,9.631-0.549c2.16-0.436,3.753-1.023,5.901-1.194c-0.012-0.416-0.012-0.834-0.022-1.251
				c-2.508-0.032-5.012-0.09-7.507-0.195l-0.071-1.419c2.464-0.36,4.983-0.763,7.518-1.175c-0.008-0.494-0.011-0.989-0.017-1.482
				l-0.012-1.069c-1.35-0.605-2.271-1.367-2.771-2.348c-0.186-0.366-0.325-0.712-0.43-1.044c-0.253,0.139-0.525,0.236-0.818,0.236
				c-0.967,0-1.751-0.783-1.751-1.748C659.027,235.447,659.812,234.661,660.77,234.659z M441.26,238.159h-0.008
				c-0.958-0.002-1.743-0.788-1.743-1.75c0-0.965,0.785-1.749,1.747-1.749c0.963,0,1.746,0.784,1.746,1.749
				C443.002,237.371,442.219,238.156,441.26,238.159z M498.406,223.142c-0.331,0.333-0.772,0.513-1.242,0.513
				c-0.963,0-1.742-0.783-1.742-1.747c0-0.964,0.779-1.749,1.738-1.749c0.967,0,1.754,0.785,1.754,1.749
				C498.914,222.375,498.735,222.812,498.406,223.142z M573.79,236.084c-0.952,0-1.756-0.8-1.756-1.748
				c0-0.949,0.804-1.749,1.756-1.749c0.968,0,1.755,0.784,1.755,1.749C575.545,235.3,574.758,236.084,573.79,236.084z
				 M581.041,234.013h-4.465l4.465-4.483l4.492,4.48L581.041,234.013z"/>
			<path fill="#1A1A1A" d="M666.4,238.969l-0.007,0.563h0.027l0.005,0.861c0.134,0.043,0.278,0.079,0.412,0.119
				C666.695,239.992,666.545,239.486,666.4,238.969z"/>
			<path fill="#1A1A1A" d="M400.776,249.014c-0.008,0.578-0.024,1.149-0.035,1.727c0.179-0.048,0.358-0.102,0.537-0.149
				l-0.041-0.818C401.055,249.531,400.907,249.274,400.776,249.014z"/>
			<path fill="#1A1A1A" d="M669.982,246.669c0.008,0.167,0.005,0.334,0.008,0.503c0.012-0.001,0.024-0.004,0.037-0.006l-0.037-0.497
				H669.982z"/>
			<path fill="#1A1A1A" d="M403.466,248.741c-0.294,0.557-0.585,1.052-0.847,1.437l-0.039,0.057
				c1.057-0.282,2.112-0.574,3.166-0.869c-0.131-0.153-0.239-0.32-0.369-0.471L403.466,248.741z"/>
			<path fill="#1A1A1A" d="M687.086,166.595l-72.046,3.562c9.508,1.598,18.952,3.562,28.304,6.086
				c20.606,5.561,38.203,17.154,37.71,37.557c-0.087,3.542-0.474,6.425-1.127,8.846l1.397-0.563l5.44,2.197l-0.267,1.373
				l-5.174,0.001l-2.438-0.001c-1.358,2.963-3.364,4.918-6.042,6.21c0.281,0.468,0.518,0.955,0.839,1.403
				c0.622,0.865,1.183,1.467,1.756,1.908l1.237,0.261c1.759,0.374,3.279,0.699,4.02,0.742l0.143,0.709l0.061-0.705l0.036,0.712
				l-0.008,0.507l0.043,0.206l-0.132,0.003l-0.778-0.013c-2.202-0.02-3.687-0.062-5.178-1.079c-1.274-0.265-2.635-0.531-3.985-0.75
				l0.284,0.965c0.938,0.028,1.694,0.798,1.694,1.741c0,0.567-0.282,1.073-0.73,1.383c0.201,0.625,0.4,1.252,0.591,1.88
				c0.259-0.073,0.526-0.141,0.793-0.202v-3.443l4.704,0.698c0.003-0.183,0.008-0.368,0.008-0.549h1.425l0.003,0.762l4.127,0.609
				l0.045,0.304c4.153-3.301,7.558-6.789,10.389-10.494v-2.672l1.151,1.148c5.722-8.138,8.516-17.47,8.516-28.964
				C703.896,185.259,693.852,173.187,687.086,166.595z M686.498,236.334c-0.964,0-1.748-0.785-1.748-1.749
				c0-0.961,0.781-1.743,1.742-1.743c0.973,0,1.76,0.779,1.76,1.741C688.252,235.548,687.465,236.334,686.498,236.334z"/>
			<path fill="#1A1A1A" d="M267.956,266.29c-16.249,0.681-32.569,1.123-48.133,6.185c-3.418,1.11-6.297,2.738-8.864,4.673
				c-7.667,5.781-12.54,14.321-20.601,20.118c-6.946,4.99-14.923,10.856-23.52,14.667l2.111,0.809l-6.115,3.775l-0.309,5.593
				c2.177-0.616,4.25-1.15,6.073-1.521c4.347-0.875,9.459-0.982,13.726-1.949c-0.945-0.016-1.709-0.789-1.709-1.743
				c0-0.958,0.781-1.747,1.741-1.751c0.971,0,1.757,0.784,1.757,1.751c0,0.673-0.394,1.241-0.953,1.531
				c5.298-1.392,9.04-4.368,7.808-12.392c15.942-4.342,19.824-14.215,22.224-26.562c2.346-0.434,12.119-2.235,21.792-3.944v-1.833
				l1.561,1.558c9.989-1.754,19.424-3.324,19.896-3.075c14.815,7.776,14.74,1.669,31.326,2.521c2.963,0.153,5.923,0.31,8.886,0.465
				c0.132-3.746,0.267-7.537,0.402-11.365c-2.671,0.149-5.334,0.24-7.975,0.193C282.617,265.978,270.877,266.163,267.956,266.29z
				 M268.845,272.666c-1.538,0-2.789-1.246-2.789-2.78c0-1.535,1.245-2.786,2.779-2.79c1.539,0.004,2.784,1.255,2.784,2.79
				C271.619,271.419,270.375,272.666,268.845,272.666z"/>
			<path fill="#1A1A1A" d="M666.421,233.863l0.035-0.002v0.034c0.348,0.01,0.694,0.024,0.999,0.04
				c-0.02-0.135-0.032-0.27-0.052-0.405c-0.739,0.137-1.495,0.262-2.299,0.361l0.771-0.016c0.032,0,0.056,0.002,0.092,0.004
				l0.398-0.016l0.051-0.016L666.421,233.863z"/>
			<path fill="#1A1A1A" d="M391.639,243.776c1.687-0.364,3.365-0.734,5.03-1.104l0.08-0.43c-1.695,0.352-3.415,0.642-5.126,0.957
				C391.631,243.394,391.63,243.581,391.639,243.776z"/>
			<path fill="#1A1A1A" d="M386.797,247.969c-2.721,0.448-5.534,0.911-8.384,0.911l-0.472-1.381
				c3.598-1.377,7.403-2.347,11.93-3.337c-0.049-0.192-0.062-0.416-0.101-0.616c-0.782,0.138-1.552,0.307-2.338,0.436
				c-26.827,4.407-58.55,17.603-88.683,19.704c-0.134,3.894-0.265,7.756-0.394,11.568c1.432,0.077,2.863,0.149,4.293,0.226
				c7.955,0.418,12.21-1.164,19.476-3.289c6.395-1.875,11.417-4.227,17.247-7.072c5.858-2.864,7.363-2.368,13.861-1.415
				c1.942,0.292,2.802,2.115,5.329,1.792c0.646-0.083,5.46-4.755,6.658-5.328c4.92-2.351,10.528-3.522,16.139-4.756l0.294-0.586
				c1.628-3.242,5.359-5.468,8.354-6.934c-0.327-0.009-0.639-0.108-0.908-0.291C388.33,247.716,387.564,247.843,386.797,247.969z"/>
			<path fill="#1A1A1A" d="M499.245,106.928l1.719,0.361l-0.022,1.078l3.215,0.163l2.644-0.029v-2.642l-0.502-2.643l-2.611-0.166
				l-1.791,0.009l-0.104-0.149c-1.464-2.128-3.892-2.978-5.857-2.083l-1.441,0.655v3.12l0.566,0.75
				C495.68,106.167,496.896,107.269,499.245,106.928z"/>
			<path fill="#1A1A1A" d="M635.289,132.792l-1.293,1.303l11.417-2.916l-3.525-1.121l0.245-1.413l-0.763-1.225l-0.357-0.474
				c-0.605-0.635-1.4-1.011-2.23-1.052l-1.512,0.113l-0.779,0.742c-0.383,0.362-0.622,0.835-0.788,1.327l-2.626-0.838
				L635.289,132.792z M638.688,126.941c0.771,0.046,1.489,0.535,1.831,1.266l-1.338,0.569l-0.04-0.056
				c-0.11-0.13-0.23-0.175-0.35-0.185l-0.009-0.004v0.004c-0.134-0.006-0.253,0.055-0.357,0.141l-1.417-0.702
				C637.311,127.3,637.955,126.905,638.688,126.941z"/>
			<polygon fill="#1A1A1A" points="631.729,127.123 632.372,127.013 631.66,126.786 			"/>
			<path fill="#1A1A1A" d="M625.787,125.929l0.851,0.595c0.685,0.478,1.512,0.759,2.341,0.806c1.305,0.07,2.474-0.478,3.135-1.462
				l0.964-1.459l-1.903-2.752l-1.2-1.034l-0.534-0.094c-0.182,0.07-0.379,0.121-0.585,0.121h-0.004
				c-0.228,0-0.442-0.051-0.636-0.131c-0.861,0.098-1.633,0.409-2.149,1.06c-0.693,0.864-0.884,2.06-0.542,3.355L625.787,125.929z
				 M628.803,125.045l1.082-0.719l-0.198-0.295l0.931-0.199c0.048,0.169,0.016,0.709-0.374,1.188
				c-0.429,0.533-1.02,0.698-1.496,0.674c-0.008,0-0.016,0-0.023,0L628.803,125.045z"/>
			<path fill="#1A1A1A" d="M517.145,116.159c0.94,0.916,2.078,1.413,3.384,1.48c0.787,0.046,1.504-0.085,2.085-0.191
				c0.302-0.05,0.685-0.116,0.796-0.113l3.136,0.459v-5.221l-1.959-0.627c-0.174-0.053-0.509-0.274-0.803-0.463
				c-0.804-0.516-1.903-1.227-3.661-1.314c-1.448-0.165-2.627,0.563-3.351,1.654c-0.67,1.022-0.756,2.33-0.223,3.482
				L517.145,116.159z"/>
			<polygon fill="#1A1A1A" points="469.67,119.582 470.633,117.054 470.982,114.656 464.966,111.61 465.109,117.831 			"/>
			<polygon fill="#1A1A1A" points="430.2,111.21 429.294,113.041 431.354,113.057 431.498,113.279 432.731,113.222 433.512,114.042 
				434.292,113.133 434.388,113.13 436.814,114.632 436.719,109.74 435.152,109.69 435.056,108.367 435.303,107.627 
				435.152,107.521 435.198,107.147 432.804,105.919 432.207,107.135 431.387,107.193 431.402,107.643 428.903,109.135 			"/>
			<path fill="#1A1A1A" d="M296.788,94.023l3.351,1.332l3.319-4.571l-4.712-3.194l-1.503,1.161
				c-2.571,1.987-1.119,4.297-0.948,4.556L296.788,94.023z M300.616,90.489c0.656,0.974,0.378,2.167,0.139,2.395l-1.15-1.39
				l0.131-0.193l-0.171-0.126L300.616,90.489z"/>
		</g>
		<g>
			<path fill="#5F7D1A" d="M285.619,239.477l-3.721,1.144c-0.648,0.181-2.592,0.581-7.633,0.906l-7.824-6.171
				c-2.293-1.809-4.698-3.729-7.103-5.674l2.909,2.924l-4.478,4.504v-8.697c-8.993-7.311-17.641-14.669-20.101-17.325
				c-3.681-4.869-6.19-11.734-6.415-17.598c-0.08-2.099-0.056-5.162,0.034-8.689l-9.586,0.319c0.004,0.051,0.006,0.103,0.006,0.156
				c0.001,1.433-1.984,2.258-2.987,1.236c-0.329-0.334-0.508-0.775-0.5-1.246c0-0.012,0-0.021,0-0.032l-11.407,0.378
				c-0.07,3.375-0.082,6.459,0.008,8.817c0.426,11.084,4.854,23.065,11.755,31.941c4.808,6.185,32.727,28.189,32.727,28.189
				s-8.667,2.315-13.16,4.259c-7.843,3.4-15.002,7.23-23.125,10.022c-2.555,0.877-5.058,2.069-7.57,3.288
				c-4.616,2.238-9.256,4.57-14.266,5.236c-5.321,0.711-11.183-1.202-16.607-1.87c-12.854-1.576-25.819-2.009-38.558-0.625
				c-8.341,0.913-59.242,13.658-38.028,30.485c0.367,0.29,0.665,0.513,1.001,0.771l4.887-1.277l4.788,4.775l-3.323,0.49
				c2.143,0.827,4.451,1.105,8.311,1.447c1.876,0.168,3.774,0.418,5.669,0.661c-0.08-0.343-0.124-0.724-0.124-1.138v-2.782h6.377
				l-1.95,3.152c-0.219,0.35-0.553,0.787-0.922,1.201c7.556,1.09,15.108,2.487,22.094,3.161c2.101,0.198,4.187,0.17,6.251-0.029
				c0.729-0.859,1.477-1.68,2.214-2.34l4.635-4.174l6.938,2.657c8.597-3.812,16.574-9.678,23.52-14.667
				c8.061-5.797,12.934-14.336,20.601-20.118c2.567-1.935,5.446-3.562,8.864-4.673c15.564-5.062,31.884-5.504,48.133-6.185
				c2.921-0.127,14.661-0.312,21.123-2.298c2.64,0.047,5.303-0.044,7.975-0.193c0.277-7.844,0.557-15.817,0.839-23.75l0.027-0.799
				c-2.387,0.188-4.743,0.307-7.043,0.307L285.619,239.477z M224.863,208.277c0.964,0,1.747,0.784,1.747,1.749
				c0,0.962-0.783,1.742-1.747,1.742c-0.964,0-1.75-0.78-1.75-1.739C223.113,209.063,223.899,208.277,224.863,208.277z
				 M217.653,215.886c-0.955,0-1.731-0.78-1.731-1.741c0-0.969,0.784-1.757,1.747-1.757c0.965,0.007,1.727,0.774,1.74,1.748
				c-0.013,0.975-0.796,1.751-1.747,1.751H217.653z M227.771,228.721l-0.203,0.367l-0.542,0.065h-0.044
				c-0.812-0.049-3.764-1.947-4.099-2.161l-5.072-3.283l4.813-0.066c1.655-0.001,3.55,1.045,4.359,2.379
				C228.19,227.967,227.886,228.514,227.771,228.721z M249.162,237.464c-0.962,0-1.747-0.786-1.747-1.751
				c0-0.963,0.784-1.745,1.747-1.745c0.952,0,1.735,0.778,1.748,1.735C250.91,236.678,250.126,237.464,249.162,237.464z
				 M115.262,305.701c-0.331,0.331-0.771,0.514-1.241,0.514c-0.469,0-0.908-0.183-1.237-0.514c-0.331-0.33-0.51-0.771-0.505-1.241
				c-0.004-0.454,0.175-0.888,0.503-1.218c0.657-0.665,1.825-0.66,2.486,0.003c0.328,0.335,0.506,0.769,0.497,1.23
				C115.769,304.93,115.59,305.371,115.262,305.701z M134.394,294.539c-0.418,0.427-0.981,0.663-1.582,0.663h-0.038
				c-1.126-0.037-3.122-0.905-4.408-1.726l-3.078-1.958l4.907-7.633l2.634,4.029c1.049,1.6,2.173,3.911,2.189,5.039
				C135.033,293.546,134.812,294.111,134.394,294.539z M141.986,312.435h-0.001c-1.537-0.004-2.784-1.258-2.784-2.79
				c0-1.536,1.249-2.781,2.785-2.781c1.526,0,2.774,1.245,2.777,2.778C144.764,311.186,143.519,312.435,141.986,312.435z
				 M147.601,283.001c-0.477,0.48-1.112,0.743-1.786,0.743c-1.403,0-2.543-1.136-2.543-2.533c0-1.398,1.134-2.537,2.531-2.537
				c1.401,0,2.539,1.139,2.539,2.537C148.341,281.886,148.079,282.522,147.601,283.001z M237.346,266.119
				c-0.557,0.894-1.77,2.401-2.796,2.401c-0.951,0-1.625-1.14-1.636-2.773l0.01-2.788h6.375L237.346,266.119z M255.693,251.583
				v-8.949l4.481,4.473L255.693,251.583z M264.904,251.437c-0.333,0.336-0.776,0.521-1.248,0.521h-0.002
				c-0.962-0.002-1.744-0.786-1.744-1.748c-0.002-1.436,1.986-2.251,2.995-1.231c0.328,0.334,0.507,0.776,0.499,1.241
				C265.411,250.665,265.232,251.103,264.904,251.437z"/>
			<path fill="#5F7D1A" d="M400.254,241.458c-0.265-0.249-0.537-0.498-0.795-0.733c0.108,0.282,0.19,0.567,0.279,0.85
				C399.909,241.536,400.08,241.496,400.254,241.458z"/>
			<path fill="#5F7D1A" d="M208.195,155.731c0,0-0.449,6.869-0.847,15.144h0.169l-0.191,0.497c-0.195,4.13-0.374,8.562-0.478,12.663
				l24.49-1.022c0.095-3.198,0.233-6.674,0.394-10.147c8.192,1.345,16.344,2.099,23.511,2.099c5.754,0,11.055-0.463,15.757-1.373
				c8.961-1.737,18.835-2.724,29.355-3.028c0.354-9.885,0.648-18.018,0.887-24.48c-11.172,0.245-22.326,1.233-33.266,3.246
				c0.001,0.033,0.021,0.083,0.021,0.113c0.006,0.611-0.221,1.176-0.641,1.6c-0.412,0.414-0.959,0.643-1.542,0.643l-0.062-0.001
				c-1.009-0.02-2.742-0.749-4.03-1.505c-14.582,1.37-34.96-2.339-47.96-6.805c-2.818-0.966-6.143-1.675-9.378-2.195
				c-7.08-1.132-13.735-1.353-13.735-1.353l9.181,8.323L208.195,155.731z M291.015,156.252l1.374-0.238l2.337,5.882l-4.127,4.126
				L291.015,156.252z M280.334,158.67l2.791,0.005c1.532,0,2.78,1.192,2.78,2.659c0,1.312-1.056,2.994-2.406,3.832l-3.173,1.962
				L280.334,158.67z M254.181,164.787h6.378l-1.96,3.16c-0.501,0.828-1.737,2.403-2.79,2.403c-0.961,0-1.629-1.144-1.629-2.782
				V164.787z M255.932,170.998c0.961,0,1.743,0.786,1.743,1.751c0,0.959-0.78,1.739-1.739,1.739c-0.968,0-1.754-0.78-1.754-1.741
				C254.181,171.783,254.967,170.998,255.932,170.998z M222.798,152.36c0.961,0.002,1.739,0.788,1.739,1.75
				c0.004,0.461-0.175,0.901-0.503,1.231c-0.328,0.333-0.768,0.514-1.235,0.514h-0.004c-0.963,0-1.747-0.782-1.747-1.745
				C221.048,153.145,221.834,152.36,222.798,152.36z M215.922,179.161c0.967,0,1.75,0.786,1.75,1.753
				c0,0.963-0.784,1.747-1.747,1.747c-0.969,0-1.755-0.784-1.755-1.747C214.171,179.947,214.957,179.161,215.922,179.161z
				 M210.616,167.346c0.328,0.33,0.507,0.766,0.507,1.229c0,0.466-0.177,0.904-0.501,1.234c-0.328,0.337-0.766,0.519-1.229,0.519
				c-0.969,0-1.755-0.786-1.755-1.753C207.634,167.147,209.604,166.324,210.616,167.346z"/>
			<path fill="#5F7D1A" d="M307.986,170.441v-4.994l4.477,4.489l-0.563,0.564c1.033,0.02,2.067,0.016,3.099,0.048
				c7.68,0.237,15.417,1.345,23.318,2.841v-1.899l2.355,2.346c5.288,1.049,10.654,2.256,16.135,3.49
				c0.555,0.125,1.123,0.25,1.68,0.374l4.65-0.193c-0.062-0.181-0.114-0.366-0.114-0.567c0-0.459,0.185-0.87,0.474-1.184
				c-0.579,0.527-1.208,0.907-1.841,0.907l-2.821,0.004l1.566-4.077c0.66-1.727,2.156-3.565,3.627-3.565h2.824l-1.544,4.077
				c-0.34,0.87-0.891,1.765-1.54,2.44c0.286-0.209,0.621-0.358,1.002-0.358c0.965,0.006,1.728,0.773,1.74,1.747
				c-0.001,0.158-0.054,0.297-0.091,0.44l184.979-7.726c-0.712-1.29-0.989-2.999-0.131-3.849l0.207-0.205l0.637-0.149
				c1.341,0,2.271,2.15,2.526,2.81c0.175,0.448,0.303,0.86,0.401,1.241l43.012-1.796c-5.993-0.716-12.014-1.282-18.056-1.75
				c-0.254,0.146-0.533,0.253-0.847,0.253h-0.005c-0.394,0-0.743-0.155-1.034-0.378c-61.189-4.495-124.371,2.144-185.485-6.381
				c-25.911-3.605-50.496-12.517-76.88-13.33c-4.326-0.131-8.663-0.157-13-0.087c-0.235,6.843-0.52,15.162-0.838,24.507
				c1.702-0.037,3.373-0.105,5.106-0.105C307.335,170.425,307.66,170.439,307.986,170.441z M430.893,164.25
				c0.972,0,1.748,0.78,1.748,1.739c0,0.965-0.78,1.751-1.739,1.751h-0.005c-0.963-0.006-1.742-0.792-1.742-1.751
				C429.154,165.029,429.934,164.25,430.893,164.25z M390.605,160.282l2.403,1.482c1.006,0.619,2.709,1.946,2.709,2.994
				c0,0.912-0.714,1.624-1.627,1.624c-1.294,0-2.919-2.612-2.987-2.724l-1.48-2.396L390.605,160.282z M348.356,169.025
				c0.958,0,1.738,0.785,1.738,1.75c0,0.464-0.179,0.902-0.504,1.231c-0.329,0.333-0.767,0.514-1.23,0.514
				c-0.967,0-1.751-0.782-1.751-1.745C346.609,169.81,347.393,169.025,348.356,169.025z M325.419,166.899
				c0.948,0,1.748,0.8,1.748,1.747c0,0.466-0.182,0.905-0.51,1.237c-0.328,0.333-0.766,0.516-1.229,0.516
				c-0.969,0-1.755-0.786-1.755-1.753C323.673,167.684,324.458,166.899,325.419,166.899z"/>
			<path fill="#5F7D1A" d="M389.771,243.545c-0.429-2.241-0.244-4.989-0.034-7.315c0.102-1.118,0.194-6.206,0.194-6.983l1.426-0.003
				c0.007,3.25,0.116,10.635,0.266,13.954c1.711-0.314,3.431-0.604,5.126-0.957l0.019-0.096c0.176-0.965,0.352-1.932,0.567-2.889
				l0.081-0.358c-0.751-0.647-1.497-1.292-2.199-1.851c-1.128-0.651-1.906-1.256-2.42-1.896l0.962-1.035
				c0.626,0.432,1.233,0.919,1.838,1.407l0.438,0.352c1.498,0.846,3.503,1.552,5.817,2.081l0.521-6.1
				c-0.056-3.583-0.064-12.876,0.445-17.114l1.421,0.054c0.199,4.526-0.096,13.035-0.441,17.153
				c0.027,1.619,0.072,3.158,0.111,4.694h0.159c0,0.557,0.024,1.156,0.044,1.751c0.285,0.049,0.572,0.098,0.858,0.139l0.753-1.633
				l0.321,1.775c1.589,0.191,3.142,0.304,4.498,0.304c1.703-0.636,3.657-1.096,5.671-1.471
				c39.783-10.877,77.104-27.006,121.602-20.217c9.003,1.375,17.939,3.155,26.854,5.046c-0.009-0.06-0.036-0.111-0.036-0.173
				c0-0.966,0.788-1.752,1.754-1.752c0.968,0,1.757,0.786,1.757,1.754c0,0.318-0.112,0.601-0.264,0.858
				c3.498,0.752,6.996,1.512,10.494,2.27l2.452-2.446l-7.415-4.682l12.059-0.08l2.337,4.381c0.842,1.57,1.693,3.689,2.056,5.269
				c19.174,3.98,38.432,7.235,58.185,6.879c6.697-0.122,12.301-0.151,16.897-0.71l-0.003-0.013l0.163-0.004
				c0.804-0.099,1.56-0.224,2.299-0.361c-0.213-1.638-0.426-3.271-0.608-4.896c-1.037-3.072-2.01-6.371-2.694-9.871
				c-0.938,0.703-2.952,0.752-3.453,0.752l-4.514,0.003l3.661-5.909l2.526,1.574c0.483,0.295,0.967,0.684,1.374,1.103
				c-0.313-2.161-0.542-4.372-0.519-6.695l0.025-2.531l1.3,2.17c2.131,3.55,3.168,7.56,4.18,11.436
				c0.99,3.826,2.081,7.736,4.162,11.198c2.678-1.292,4.684-3.247,6.042-6.21h-2.742l-0.267-1.373l4.05-1.634
				c0.653-2.421,1.04-5.304,1.127-8.846c0.493-20.403-17.104-31.996-37.71-37.557c-9.352-2.525-18.796-4.489-28.304-6.086
				l-116.671,5.768l-55.497,1.845c0.079,0.2,0.13,0.415,0.13,0.645c0,0.964-0.783,1.75-1.746,1.75c-0.962,0-1.747-0.786-1.747-1.75
				c0-0.192,0.051-0.365,0.108-0.538l-62.919,2.091c-0.585,1.018-2.155,1.044-2.79,0.092l-3.989,0.133
				c6.287,1.317,12.707,2.543,19.333,3.464c29.249,4.079,58.156,4.914,92.56,4.914c5.957,0,11.91-0.021,17.863-0.045
				c5.886-0.021,11.768-0.045,17.645-0.045c11.287,0,22.771,0.107,34.32,0.461c-0.179-0.368-0.299-0.768-0.299-1.204
				c0-1.536,1.25-2.786,2.79-2.786c1.532,0.002,2.773,1.251,2.773,2.784c0,0.51-0.175,0.963-0.414,1.375
				c27.037,1.018,54.369,3.687,80.479,10.736c3.947,1.066,15.456,4.589,18.751,10.166c-1.846,0.051-3.793,0.085-5.579,0.113
				c0,0-4.233,0.065-5.083,0.065c-21.062,0-42.182-4.59-64.539-9.452c-12.619-2.743-25.668-5.579-39.011-7.619
				c-8.245-1.258-16.706-1.896-25.15-1.896c-3.772,0-7.486,0.131-11.155,0.363l-1.254,0.835c-0.182,0.844-0.858,1.389-1.663,1.389
				l-0.369-0.076l-1.266,0.814c-1.597,1.026-3.896,2.132-5.022,2.152h-0.027c-1.241,0-2.249-1.233-2.249-2.751v-1.237
				c-21.704,2.723-41.797,8.787-61.388,14.714c-0.346,0.105-0.677,0.203-1.022,0.307h2.029c1.146,0,3.815,0.146,3.815,1.526
				c0,1.166-2.487,2.256-3.558,2.67l-4.074,1.562v-5.224c-5.632,1.702-11.179,3.331-16.674,4.871
				c-0.024,0.399-0.181,0.788-0.475,1.09c-0.334,0.337-0.776,0.521-1.249,0.521h-0.004c-0.573-0.001-1.062-0.302-1.38-0.734
				c-8.621,2.35-17.18,4.403-25.902,5.834c-12.348,2.029-25.248,5.623-37.725,9.101c-15.563,4.336-31.545,8.749-46.165,10.126
				l-0.074,2.177c-0.254,7.511-0.507,15.027-0.758,22.428c30.133-2.101,61.856-15.297,88.683-19.704
				C388.219,243.852,388.989,243.683,389.771,243.545z M409.157,184.31h-4.497l4.497-4.487l4.473,4.485L409.157,184.31z
				 M528.24,184.309c-0.971,0-1.763-0.785-1.763-1.748c0-0.961,0.792-1.743,1.763-1.743c0.959,0,1.738,0.782,1.738,1.745
				C529.979,183.525,529.199,184.309,528.24,184.309z M572.958,187.936c-0.326,0.331-0.764,0.513-1.233,0.513
				c-0.963,0-1.743-0.781-1.743-1.744c0-0.965,0.78-1.749,1.734-1.749c0.964,0,1.743,0.784,1.743,1.749
				C573.459,187.169,573.28,187.605,572.958,187.936z M572.596,184.563l-5.878-0.001v-5.14l6.014,1.146
				c5.758,1.102,5.758,2.145,5.758,2.487C578.489,183.466,578.489,184.563,572.596,184.563z M664.217,229.87h-8.97l4.497-4.485
				L664.217,229.87z M654.559,220.159c0.967,0,1.754,0.786,1.754,1.751c0,0.963-0.787,1.745-1.754,1.745
				c-0.963,0-1.747-0.783-1.747-1.749C652.812,220.944,653.596,220.159,654.559,220.159z M591.928,211.48l4.489-4.486l2.252,2.27
				c0.538-0.668,1.381-1.528,2.166-1.528c1.07,0,1.627,1.397,1.627,2.778v1.375l3.037-1.972c1.834-1.186,4.277-2.115,5.562-2.117
				l4.489,0.003l-5.137,3.311c-1.828,1.194-4.267,2.129-5.552,2.129h-2.4v0.064h-6.391l1.142-1.828l-0.796-0.002l-2.348,0.002
				l3.888,3.89l-8.994,0.003l3.913-3.891H591.928z M586.218,207.733c0.963,0,1.743,0.784,1.743,1.749
				c0,0.463-0.179,0.899-0.506,1.23c-0.33,0.332-0.768,0.513-1.229,0.513c-0.972,0-1.759-0.782-1.759-1.743
				S585.251,207.736,586.218,207.733z M561.696,209.803l6.362-0.002l-1.938,3.166c-0.562,0.896-1.775,2.401-2.798,2.401
				c-0.958,0-1.627-1.141-1.627-2.771V209.803z M512.637,202.741c0.967,0,1.752,0.785,1.752,1.749c0,0.963-0.785,1.745-1.749,1.745
				c-0.958,0-1.751-0.777-1.762-1.735C510.889,203.521,511.682,202.741,512.637,202.741z M502.35,194.329l4.497,4.473l-4.497,0.002
				l-4.5-0.002L502.35,194.329z M483.908,206.175c0.33,0.333,0.514,0.772,0.514,1.239c0,0.465-0.184,0.902-0.514,1.232
				c-0.33,0.33-0.768,0.511-1.229,0.511c-0.967,0-1.751-0.781-1.751-1.744C480.928,205.977,482.894,205.167,483.908,206.175z
				 M458.854,208.826l4.469,4.479l-4.469,0.001l-4.465-0.001L458.854,208.826z M439.509,210.516c0-1.535,1.198-2.78,2.666-2.78
				c1.31,0,2.992,1.055,3.833,2.399l1.93,3.17h-8.429V210.516z M423.65,221.244l4.485,4.489l-8.966-0.004L423.65,221.244z"/>
			<path fill="#5F7D1A" d="M125.234,216.208c8.266,2.278,17.145,0.474,24.84-1.64c2.87-0.785,7.35-2.473,10.811-5.149v-6.768
				l3.315,3.326c1.367-2.025,2.047-4.401,1.466-7.161c-0.177-0.84-0.408-1.617-0.675-2.352l-4.662,4.663l0.006-5.15l-0.006-3.829
				l1.383-0.853c-1.661-1.664-3.652-2.848-5.774-3.705l-21.734,0.907l3.765,3.739l-3.602,3.599l-2.758-7.229l-5.1,0.213
				c0.025,0.12,0.04,0.245,0.04,0.373c0,0.965-0.784,1.751-1.748,1.751c-0.964-0.002-1.747-0.789-1.747-1.749
				c0-0.079,0.004-0.155,0.014-0.231l-46.095,1.926c-0.161,1.208,0.102,2.659-0.151,4.302c-0.438,2.812-2.061,5.591-3.16,8.172
				c0,0,22.038,3.516,30.575,5.094C112.015,209.916,118.238,214.264,125.234,216.208z M87.652,205.439h-0.004
				c-1.272-0.004-2.824-2.451-2.997-2.73l-1.481-2.392l0.983-0.982l2.4,1.484c0.276,0.171,2.72,1.711,2.72,2.995
				C89.274,204.707,88.548,205.438,87.652,205.439z"/>
			<path fill="#5F7D1A" d="M131.896,187.01l0.412-0.396l18.397-0.597c-3.93-0.874-7.644-1.226-9.783-2.16
				c-16.79-7.331-31.885,0.461-49.291,0.655c-4.087,0.051-8.266,2.284-12.153,3.641c-0.245,0.085-0.426,0.185-0.627,0.282
				l53.032-1.762L131.896,187.01z"/>
		</g>
		<g>
			<path fill="#798E23" d="M299.486,195.029l0.441-12.512l-68.639,2.282c-0.089,3.527-0.113,6.59-0.034,8.689
				c0.225,5.864,2.734,12.729,6.415,17.598c2.46,2.656,11.107,10.014,20.101,17.325v-0.307l1.568,1.576
				c2.405,1.946,4.81,3.866,7.103,5.674l7.824,6.171c5.041-0.325,6.984-0.725,7.633-0.906l3.721-1.144l5.257,0.081
				c2.3,0,4.656-0.119,7.043-0.307l0.874-24.665c-2.75,0.307-5.426,0.521-7.917,0.521l-8.745-0.14l-1.478,0.457
				c-7.782-6.155-14.922-12.074-19.657-16.141c5.17-0.239,10.076-0.802,14.646-1.687
				C282.883,196.193,290.886,195.343,299.486,195.029z M291.666,184.773l5.649,5.605l-3.6,3.604l-3.219-8.45L291.666,184.773z
				 M284.147,185.602c0.971,0,1.758,0.782,1.758,1.745c0,0.959-0.786,1.739-1.755,1.739c-0.959,0-1.738-0.78-1.738-1.739
				C282.412,186.383,283.189,185.602,284.147,185.602z M233.217,192.902l0.375-0.872c0.1-0.233,0.267-1.34,0.286-3.314l0.013-1.647
				l1.192,1.138c0.573,0.547,0.888,1.307,0.888,2.141l0.012,2.9L233.217,192.902z M246.99,203.587c-1.294,0-2.92-2.613-2.987-2.724
				l-1.48-2.396l0.98-0.98l2.405,1.482c1.006,0.619,2.71,1.946,2.71,2.995C248.618,202.875,247.903,203.587,246.99,203.587z
				 M261.273,225.369c0,0.959-0.786,1.736-1.755,1.736c-0.963,0-1.748-0.777-1.748-1.736c0-0.968,0.785-1.754,1.748-1.754
				C260.487,223.615,261.273,224.401,261.273,225.369z"/>
			<path fill="#798E23" d="M300.355,170.563c-10.52,0.304-20.394,1.291-29.355,3.028c-4.702,0.91-10.003,1.373-15.757,1.373
				c-7.167,0-15.319-0.754-23.511-2.099c-0.161,3.474-0.299,6.95-0.394,10.147l68.674-2.87
				C300.134,176.769,300.246,173.602,300.355,170.563z"/>
			<path fill="#798E23" d="M338.316,173.39c-7.902-1.496-15.638-2.604-23.318-2.841c-1.031-0.032-2.065-0.028-3.099-0.048
				l-3.914,3.924v-3.984c-0.326-0.001-0.65-0.016-0.977-0.016c-1.733,0-3.404,0.068-5.106,0.105
				c-0.105,3.079-0.213,6.264-0.324,9.547l36.737-1.533V173.39z"/>
			<path fill="#798E23" d="M358.486,177.7c-0.557-0.124-1.125-0.249-1.68-0.374c-5.481-1.234-10.848-2.441-16.135-3.49l2.125,2.115
				l-2.51,2.509L358.486,177.7z"/>
			<path fill="#798E23" d="M636.969,199.848c-26.109-7.05-53.441-9.718-80.479-10.736c-0.48,0.829-1.336,1.416-2.356,1.418h-0.003
				c-1.103-0.002-2.037-0.659-2.491-1.588c-11.549-0.354-23.033-0.461-34.32-0.461c-5.877,0-11.759,0.024-17.645,0.045
				c-5.953,0.024-11.906,0.045-17.863,0.045c-34.403,0-63.311-0.835-92.56-4.914c-6.626-0.921-13.045-2.147-19.333-3.464
				l-20.143,0.669l4.08,4.084h-8.968l4.069-4.057l-25.104,0.834c-0.352,1.508-2.918,1.578-3.366,0.111l-18.986,0.631l-0.424,12.53
				c1.96-0.056,3.912-0.119,5.933-0.119c2.422,0,4.843,0.04,7.257,0.114c1.37,0.041,2.762,0.123,4.172,0.236
				c0.334-0.318,0.786-0.518,1.246-0.535v-4.386l5.228-3.245l3.5,3.49l-5.175,5.171c8.815,1.096,18.301,3.229,28.201,5.457
				c0.577,0.13,1.158,0.262,1.736,0.391c-4.711,1.245-9.38,2.547-13.991,3.833c-13.335,3.714-26.997,7.497-38.765,9.003
				l-0.835,24.675c14.62-1.377,30.602-5.79,46.165-10.126c12.477-3.478,25.377-7.071,37.725-9.101
				c8.722-1.431,17.281-3.484,25.902-5.834c-0.212-0.289-0.362-0.627-0.362-1.013c0-1.441,2-2.238,2.991-1.231
				c0.331,0.333,0.51,0.776,0.502,1.242c0,0.044-0.021,0.083-0.023,0.125c5.495-1.541,11.042-3.169,16.674-4.871v-0.535h1.787
				c0.346-0.104,0.677-0.202,1.022-0.307c19.591-5.927,39.684-11.991,61.388-14.714v-1.558l7.453,0.058
				c0.594-1.091,2.396-1.079,2.974,0.018h1.958l-0.534,0.356c3.669-0.231,7.383-0.363,11.155-0.363
				c8.444,0,16.905,0.639,25.15,1.896c13.343,2.04,26.392,4.875,39.011,7.619c22.357,4.861,43.477,9.452,64.539,9.452
				c0.85,0,5.083-0.065,5.083-0.065c1.786-0.028,3.733-0.062,5.579-0.113C652.425,204.437,640.916,200.915,636.969,199.848z
				 M338.694,191.171l4.491-4.489l4.453,4.484L338.694,191.171z M349.049,193.234l4.471-4.479l4.475,4.48L349.049,193.234z
				 M362.849,189.085c-0.963,0-1.747-0.78-1.747-1.741c0-0.961,0.782-1.743,1.743-1.743c0.967,0,1.751,0.782,1.751,1.745
				C364.597,188.306,363.812,189.085,362.849,189.085z M374.872,191.517l-0.203,0.366l-0.542,0.066h-0.044
				c-0.812-0.05-3.765-1.946-4.099-2.161l-5.072-3.283l4.813-0.067c1.656-0.001,3.55,1.045,4.36,2.38
				C375.292,190.763,374.987,191.31,374.872,191.517z M396.264,200.26c-0.963,0-1.747-0.786-1.747-1.75
				c0-0.964,0.784-1.746,1.747-1.746c0.952,0,1.734,0.778,1.747,1.736C398.011,199.474,397.227,200.26,396.264,200.26z
				 M402.794,214.379v-8.949l4.48,4.473L402.794,214.379z M406.618,189.901c-0.964,0-1.747-0.777-1.747-1.737
				c0-0.967,0.783-1.752,1.747-1.752c0.967,0,1.755,0.786,1.755,1.752C408.373,189.124,407.585,189.901,406.618,189.901z"/>
		</g>
		<g>
			<path fill="#8A9B27" d="M260.996,199.283c4.735,4.067,11.875,9.986,19.657,16.141l1.478-0.457l8.745,0.14
				c2.491,0,5.167-0.215,7.917-0.521l0.692-19.557c-8.6,0.314-16.603,1.164-23.844,2.567
				C271.072,198.481,266.166,199.044,260.996,199.283z"/>
			<path fill="#8A9B27" d="M351.437,201.179c-9.9-2.229-19.386-4.361-28.201-5.457l-3.552,3.55v-1.087
				c-1.048-0.038-1.791-0.772-1.789-1.745c0-0.483,0.217-0.905,0.543-1.214c-1.411-0.113-2.803-0.195-4.172-0.236
				c-2.414-0.074-4.835-0.114-7.257-0.114c-2.021,0-3.973,0.063-5.933,0.119l-0.659,19.41c11.768-1.507,25.43-5.289,38.765-9.003
				c4.611-1.286,9.28-2.587,13.991-3.833C352.594,201.44,352.013,201.309,351.437,201.179z"/>
		</g>
	</g>
</g>
</svg>
